<svg width="50" height="50" viewBox="0 0 50 50" fill="none" xmlns="http://www.w3.org/2000/svg">
<path fill-rule="evenodd" clip-rule="evenodd" d="M42.141 34.8268C44.8475 31.1897 46.4509 26.6699 46.4509 21.7731C46.4509 9.74798 36.7822 0 24.8553 0C12.9284 0 3.25971 9.74798 3.25971 21.7731C3.25971 26.7449 4.91249 31.3273 7.6943 34.9925L0 42.7502L7.21267 42.7281L7.19082 50L15.6477 41.4736C18.4407 42.8028 21.5619 43.5461 24.8553 43.5461C28.2259 43.5461 31.4161 42.7678 34.2587 41.3793L42.8091 50L42.7873 42.7281L50 42.7502L42.141 34.8268ZM43.1912 21.7731C43.1912 31.9828 34.982 40.2596 24.8553 40.2596C14.7287 40.2596 6.51943 31.9828 6.51943 21.7731C6.51943 11.5633 14.7287 3.2865 24.8553 3.2865C34.982 3.2865 43.1912 11.5633 43.1912 21.7731ZM40.7464 21.7731C40.7464 30.6216 33.6317 37.7948 24.8553 37.7948C16.0789 37.7948 8.96421 30.6216 8.96421 21.7731C8.96421 12.9246 16.0789 5.75138 24.8553 5.75138C33.6317 5.75138 40.7464 12.9246 40.7464 21.7731ZM25.059 13.9676L26.7514 19.2191H32.2282L27.7974 22.4647L29.4898 27.7162L25.059 24.4706L20.6283 27.7162L22.3207 22.4647L17.8899 19.2191H23.3666L25.059 13.9676Z" fill="#3F3631"/>
</svg>
