<svg width="214" height="50" viewBox="0 0 214 50" fill="none" xmlns="http://www.w3.org/2000/svg">
<path fill-rule="evenodd" clip-rule="evenodd" d="M50.1338 24.1738C50.1562 23.972 50.1562 23.7929 50.1562 23.5911C50.1562 17.0538 45.8924 12.3964 39.7659 12.464C35.5021 12.464 31.328 15.0608 24.9996 21.5989C24.6854 21.8894 23.2492 23.3901 22.935 23.7254C17.6388 29.0769 13.7789 31.45 10.4576 31.45C6.26111 31.45 3.34375 28.2932 3.34375 23.6359V23.5911V23.2102C3.3662 23.1435 3.3662 23.054 3.3662 22.9864C3.38862 22.9417 3.38862 22.875 3.38862 22.8074C3.38862 22.7765 3.39345 22.7407 3.39862 22.7024C3.40462 22.6577 3.41107 22.6097 3.41107 22.5616C3.43352 22.5169 3.43352 22.4493 3.43352 22.4046C3.44472 22.3598 3.45033 22.3151 3.45595 22.2703C3.46156 22.2255 3.46717 22.1808 3.4784 22.136C3.4784 22.1132 3.48424 22.0905 3.48995 22.0677C3.49546 22.0457 3.50085 22.0237 3.50085 22.0017C3.50085 21.9122 3.52327 21.8227 3.54572 21.7332C3.54572 21.7104 3.56817 21.6656 3.56817 21.6209C3.59059 21.5094 3.61304 21.4191 3.63549 21.3295C3.63549 21.3068 3.6411 21.2905 3.64672 21.2742C3.65233 21.2571 3.65792 21.24 3.65792 21.2181L3.72526 20.9495C3.72526 20.9047 3.74769 20.882 3.74769 20.8372C3.75891 20.7924 3.77575 20.742 3.79259 20.6915C3.80942 20.6411 3.82624 20.5914 3.83746 20.5467C3.83746 20.5239 3.85991 20.5011 3.85991 20.4791C3.88233 20.4344 3.89917 20.3839 3.91601 20.3335C3.93285 20.283 3.94968 20.2325 3.97211 20.1878L3.99456 20.121C4.03943 20.0315 4.0843 19.9192 4.1292 19.8297L4.15163 19.7849C4.1741 19.7402 4.19658 19.6897 4.21905 19.6393C4.24147 19.5888 4.26387 19.5384 4.28627 19.4936L4.30872 19.4488C4.3312 19.4041 4.35928 19.3536 4.38737 19.3032C4.41538 19.2527 4.44339 19.2031 4.46582 19.1583L4.48827 19.1355L4.54454 19.0395C4.58485 18.9703 4.62087 18.9077 4.66779 18.845L4.69024 18.8222C4.73511 18.7099 4.80243 18.6204 4.86975 18.5309V18.5089C6.08159 16.7625 7.96666 15.7102 10.1883 15.7102H10.2108C11.4002 15.7102 12.5671 15.956 13.8912 16.5607C14.0034 16.6054 14.1156 16.6502 14.2278 16.7177L14.2951 16.7625C15.4172 17.4567 16.988 18.5537 17.6837 19.046C17.8857 19.2031 17.9081 19.024 17.8633 18.8898C17.5939 18.1508 17.0554 16.4939 17.1003 14.7695C17.4369 10.9861 20.4889 8.38846 24.8874 8.38846C27.9394 8.38846 30.4079 9.64253 31.7544 11.5908C32.0013 11.9708 32.5399 12.0831 32.9213 11.8593C33.2307 11.6746 33.54 11.5102 33.842 11.3605C33.9782 11.2929 34.1129 11.2278 34.2454 11.1652C34.7167 10.9633 34.8737 10.3587 34.6044 9.91109C33.9537 8.85884 33.1009 7.94087 32.0686 7.20194C32.0205 7.1702 31.9953 7.11486 31.993 7.06196C31.9921 7.04081 31.9949 7.01965 32.0013 7.00093L32.6521 5.25451C32.6745 5.18696 32.7194 5.16499 32.7643 5.1422C33.7741 4.85086 34.5371 3.97765 34.6493 2.88065C34.8064 1.44754 33.7292 0.149528 32.293 0.0152511C30.8568 -0.141813 29.5552 0.93322 29.4205 2.36551C29.3756 2.97017 29.5327 3.55285 29.8245 4.02241C29.8693 4.06717 29.8693 4.13472 29.8469 4.17948L29.3307 5.54504C29.3083 5.63456 29.1961 5.67931 29.1063 5.65734C27.8272 5.23172 26.4134 5.00793 24.9098 5.00793C23.4511 5.00793 22.1047 5.23172 20.8704 5.63456C20.8164 5.64839 20.7624 5.63781 20.7182 5.6077C20.6889 5.58735 20.6639 5.55887 20.646 5.52306L20.1523 4.17948C20.1298 4.13472 20.1523 4.06717 20.1747 4.02241C20.4889 3.55285 20.646 2.97017 20.5787 2.36551C20.444 0.93322 19.1424 -0.119026 17.7062 0.0152511C16.2699 0.149528 15.2152 1.44754 15.3498 2.88065C15.462 3.97765 16.2475 4.85086 17.2349 5.1422C17.2798 5.16499 17.3247 5.20975 17.3471 5.25451L17.9979 6.95536C18.0203 7.0229 17.9979 7.11242 17.9306 7.15718C16.2026 8.43322 14.9459 10.2024 14.3175 12.3289C14.1829 12.7993 13.7116 13.0678 13.2404 12.9335C12.2754 12.643 11.3104 12.5087 10.3454 12.5087C4.35359 12.5087 0 17.1653 0 23.7034C0 29.5693 3.56817 33.8678 8.77454 34.6295C9.31312 34.6962 9.87416 34.741 10.4352 34.741C11.0635 34.741 11.7143 34.6743 12.3651 34.562C15.866 33.8906 19.6361 31.3824 25.0445 25.9869C25.2689 25.7631 26.9295 24.0387 27.1539 23.7929L27.1764 23.7701L27.1988 23.7482C29.3532 21.5989 31.1485 19.9868 32.6969 18.8002C35.6368 16.5387 37.7687 15.7322 39.8782 15.7322C40.3719 15.7322 40.8656 15.7998 41.3144 15.8893C44.5235 16.5835 46.7676 19.6279 46.7676 23.7034C46.7676 23.9492 46.7676 24.1958 46.7452 24.4195V24.5091L46.6779 25.1585C46.6554 25.2032 46.6554 25.226 46.6554 25.2708C46.633 25.4946 46.5881 25.6956 46.5432 25.8974C46.5432 25.9088 46.537 25.9267 46.5311 25.9446C46.5258 25.9609 46.5208 25.9764 46.5208 25.9869L46.4707 26.2067C46.4402 26.3352 46.4065 26.463 46.3637 26.5916L46.3412 26.6583C46.2866 26.8553 46.2159 27.0514 46.1371 27.2426C46.0541 27.4436 45.962 27.639 45.87 27.8229L45.8475 27.8676C45.7578 28.0467 45.668 28.2257 45.5558 28.3828L45.5109 28.4495L45.1743 28.9199L45.1294 28.9874C44.9948 29.1437 44.8826 29.3007 44.7479 29.435L44.7255 29.457C44.5937 29.6108 44.4565 29.7483 44.3113 29.8777C44.1599 30.012 43.9997 30.1373 43.8278 30.2635C43.6707 30.375 43.5136 30.4873 43.3341 30.5768L43.2892 30.5996C43.2037 30.6484 43.1116 30.6972 43.0164 30.746L42.7731 30.8681L42.7282 30.8901C42.6496 30.9292 42.5666 30.9641 42.4832 30.9967C42.376 31.0382 42.2681 31.0765 42.1672 31.1139H42.1447C41.9261 31.1863 41.701 31.253 41.4728 31.3092C41.2793 31.3564 41.0837 31.3971 40.888 31.428C40.5065 31.4947 40.1026 31.5175 39.6986 31.5175C36.8486 31.5175 33.617 29.7264 29.4205 25.8974C29.2634 25.7404 29.039 25.7404 28.8819 25.8974L27.2662 27.5096C27.1091 27.6658 27.1315 27.9124 27.2886 28.0695C32.5399 32.8831 36.1753 34.719 39.7884 34.719C41.0675 34.719 42.2569 34.5172 43.3566 34.1363L43.4014 34.1144C43.4687 34.0924 43.5304 34.0704 43.5921 34.0485C43.6538 34.0257 43.7156 34.0029 43.7829 33.9801C43.8054 33.9573 43.8503 33.9573 43.8727 33.9353C43.9849 33.8678 44.0971 33.823 44.2093 33.7783C44.2542 33.7563 44.2766 33.7563 44.3215 33.7335C44.4337 33.6888 44.5235 33.622 44.6357 33.5773C44.6581 33.5545 44.703 33.5325 44.7479 33.5097C44.8019 33.4829 44.8639 33.456 44.9244 33.4243C44.9645 33.4031 45.0038 33.3803 45.0397 33.3535L45.1743 33.2859C45.2245 33.2485 45.2747 33.2176 45.3249 33.1858C45.3645 33.1614 45.404 33.1362 45.4436 33.1069C45.4885 33.0621 45.5333 33.0393 45.5782 33.0174C45.6335 32.9897 45.6888 32.9539 45.7441 32.914L45.8475 32.8383C45.8695 32.8269 45.8916 32.8107 45.9136 32.7944C45.9365 32.7773 45.9593 32.7602 45.9822 32.7488C46.0227 32.7081 46.0713 32.6683 46.1232 32.6276L46.229 32.547C46.2415 32.5348 46.261 32.5153 46.2836 32.4965C46.3015 32.4819 46.3214 32.4672 46.3412 32.4575C46.3871 32.4233 46.4271 32.3891 46.4672 32.3549C46.5056 32.3224 46.5442 32.289 46.5881 32.2557L46.7003 32.1442C46.7901 32.0766 46.8798 31.9871 46.9471 31.9204L47.0594 31.8081C47.1267 31.7185 47.2164 31.6518 47.2838 31.5623C47.3287 31.5395 47.3511 31.4947 47.3735 31.4728L47.3829 31.463C47.4695 31.3759 47.5554 31.2897 47.6204 31.2034V31.1814C47.8224 30.9349 48.0019 30.6891 48.1814 30.4425C48.2488 30.353 48.3161 30.2635 48.361 30.1739C48.3731 30.1495 48.3919 30.1186 48.4101 30.0885L48.4507 30.0169L48.5027 29.9209C48.5302 29.872 48.5578 29.8265 48.5854 29.7711C48.6302 29.7264 48.6527 29.6588 48.6976 29.5913C48.7424 29.5017 48.7873 29.435 48.8322 29.3455C48.8771 29.278 48.8995 29.2112 48.9444 29.1437C48.9893 29.0542 49.0118 28.9874 49.0566 28.8979C49.1015 28.8304 49.1464 28.7408 49.1688 28.6733C49.1801 28.6285 49.1969 28.5895 49.2137 28.5504C49.2306 28.5113 49.2474 28.4723 49.2586 28.4275C49.2811 28.338 49.3259 28.2705 49.3484 28.1809C49.3708 28.0914 49.4157 28.0247 49.4381 27.9352C49.4466 27.9099 49.4582 27.8815 49.4706 27.8514C49.4911 27.8009 49.5139 27.7447 49.5279 27.6886C49.5503 27.5991 49.5728 27.5315 49.5952 27.442L49.6625 27.1735C49.6752 27.123 49.6879 27.0799 49.7006 27.0359L49.7299 26.9277L49.7972 26.6583C49.7972 26.5688 49.8196 26.5021 49.8421 26.4126C49.8584 26.3474 49.8748 26.2701 49.8911 26.1985L49.9094 26.1212C49.9206 26.0765 49.9262 26.0374 49.9318 25.9983C49.9374 25.9593 49.9431 25.9194 49.9543 25.8746C49.9654 25.8193 49.971 25.7696 49.9765 25.72C49.9822 25.6696 49.9878 25.6183 49.9992 25.5613C49.9992 25.4718 50.0216 25.4051 50.0216 25.3155C50.0441 25.2032 50.0665 25.0918 50.0665 24.9794C50.0665 24.9119 50.0889 24.8224 50.0889 24.7557C50.0889 24.6214 50.1114 24.5091 50.1114 24.3748C50.1338 24.3081 50.1338 24.2405 50.1338 24.1738ZM37.3647 38.01C37.4545 37.9205 37.4769 37.809 37.4769 37.6967C37.4994 37.5397 37.4321 37.3834 37.3198 37.2939C37.0057 37.0473 36.6017 36.756 36.108 36.4427C35.0533 35.7485 33.5721 34.9428 31.732 34.2934C29.9142 33.644 27.715 33.1736 25.224 33.1736H24.7976C21.5661 33.2412 18.8507 34.1144 16.7861 35.0771C15.7538 35.5695 14.8786 36.0846 14.1829 36.555C13.6892 36.8683 13.2628 37.1816 12.9486 37.4282C12.8997 37.4648 12.8642 37.5079 12.8383 37.5543C12.8166 37.5926 12.8017 37.6333 12.7915 37.674V37.6967V37.7635V37.7863C12.7915 37.8758 12.814 37.9653 12.8588 38.0328C12.8588 38.0548 12.8813 38.0548 12.9037 38.0776H12.9262C12.9486 38.0776 12.9711 38.0996 12.9711 38.0996L24.7078 49.8322C24.9323 50.056 25.2913 50.056 25.5157 49.8322L37.3647 38.01ZM17.5266 38.0548C18.1101 37.7635 18.7609 37.4729 19.479 37.2044C21.005 36.6445 22.8003 36.2189 24.8201 36.1521H25.1791C27.9843 36.1521 30.3406 36.8683 32.1584 37.6967C32.3603 37.7863 32.5623 37.8758 32.7418 37.9653C32.854 38.0328 32.8765 38.1671 32.7867 38.2566L30.5201 40.5182C30.4528 40.5849 30.363 40.5849 30.2957 40.5402C29.9591 40.3164 29.5327 40.0478 28.9717 39.8012C28.0965 39.3984 26.9295 39.0623 25.5157 38.9956H25.0669C23.2941 38.9956 21.8578 39.4651 20.848 39.9583C20.444 40.1593 20.1298 40.3383 19.8605 40.5182C19.8296 40.5385 19.794 40.5499 19.758 40.5499C19.7155 40.5491 19.6725 40.532 19.6361 40.4954L17.4818 38.3461C17.392 38.2566 17.4144 38.0996 17.5266 38.0548ZM28.074 43.0027L25.5157 45.5556C25.2913 45.7794 24.9323 45.7794 24.7303 45.5776L22.1271 42.9808C22.0373 42.8912 22.0598 42.7342 22.172 42.6894C22.8677 42.3541 23.8326 42.04 25.0669 42.04H25.3811C26.5032 42.0848 27.3784 42.3761 27.9843 42.6894C27.9955 42.6894 28.0011 42.6951 28.0067 42.7008C28.0123 42.7065 28.0179 42.7122 28.0292 42.7122C28.1414 42.7789 28.1638 42.9132 28.074 43.0027ZM78.9092 21.7348H74.5564V41.2823H69.6488V21.7348H66.875V17.7651H69.6488V16.1009C69.6488 13.3982 70.3601 11.4345 71.7826 10.2114C73.2335 8.95894 75.4953 8.33312 78.5678 8.33312V12.3875C77.0884 12.3875 76.05 12.6723 75.4526 13.2412C74.8552 13.7823 74.5564 14.7353 74.5564 16.1009V17.7651H78.9092V21.7348ZM85.6958 14.6499C84.8139 14.6499 84.0742 14.3512 83.4768 13.7539C82.8793 13.1557 82.5806 12.416 82.5806 11.5338C82.5806 10.6525 82.8793 9.9119 83.4768 9.31457C84.0742 8.71724 84.8139 8.41857 85.6958 8.41857C86.5493 8.41857 87.2748 8.71724 87.8722 9.31457C88.4697 9.9119 88.7684 10.6525 88.7684 11.5338C88.7684 12.416 88.4697 13.1557 87.8722 13.7539C87.2748 14.3512 86.5493 14.6499 85.6958 14.6499ZM88.0856 17.7651V41.2823H83.2207V17.7651H88.0856ZM102.154 18.4056C100.988 19.0598 100.049 19.9851 99.3377 21.1798V17.7651H94.4728V41.2823H99.3377V28.9052C99.3377 26.5151 99.8213 24.8362 100.789 23.8686C101.784 22.901 103.235 22.4176 105.141 22.4176H106.379V17.381C104.757 17.381 103.349 17.7228 102.154 18.4056ZM132.402 28.9475C132.402 29.8297 132.345 30.6264 132.231 31.3377H114.265C114.407 33.2159 115.104 34.7239 116.356 35.8616C117.608 37.0001 119.144 37.569 120.965 37.569C123.582 37.569 125.431 36.4736 126.512 34.2828H131.761C131.05 36.4451 129.756 38.2233 127.878 39.6181C126.029 40.9837 123.724 41.6665 120.965 41.6665C118.717 41.6665 116.697 41.1684 114.905 40.1723C113.141 39.1486 111.747 37.726 110.723 35.9047C109.727 34.055 109.229 31.9212 109.229 29.5026C109.229 27.0839 109.713 24.964 110.68 23.1435C111.676 21.2937 113.056 19.8712 114.82 18.8751C116.612 17.879 118.66 17.381 120.965 17.381C123.184 17.381 125.161 17.8652 126.896 18.8328C128.632 19.7996 129.983 21.166 130.951 22.9295C131.918 24.6653 132.402 26.6713 132.402 28.9475ZM127.323 27.4111C127.295 25.6183 126.655 24.1819 125.403 23.1004C124.151 22.0196 122.601 21.4785 120.751 21.4785C119.073 21.4785 117.636 22.0196 116.441 23.1004C115.246 24.1534 114.535 25.5898 114.307 27.4111H127.323ZM145.425 18.491C144.003 19.2023 142.879 20.1267 142.054 21.2653V9.69868H137.189V41.2823H142.054V37.8676C142.879 38.9777 143.989 39.8883 145.383 40.5996C146.805 41.3108 148.427 41.6665 150.247 41.6665C152.296 41.6665 154.159 41.1546 155.838 40.13C157.545 39.0769 158.882 37.6259 159.849 35.777C160.817 33.8987 161.3 31.7788 161.3 29.4171C161.3 27.0555 160.817 24.964 159.849 23.1435C158.882 21.2937 157.559 19.8712 155.881 18.8751C154.202 17.879 152.324 17.381 150.247 17.381C148.484 17.381 146.876 17.7513 145.425 18.491ZM155.326 25.2342C156.009 26.4012 156.35 27.7952 156.35 29.4171C156.35 31.039 156.009 32.4615 155.326 33.6855C154.671 34.9086 153.789 35.8478 152.68 36.5021C151.599 37.1279 150.432 37.4412 149.181 37.4412C147.957 37.4412 146.791 37.1279 145.681 36.5021C144.6 35.8763 143.718 34.9656 143.035 33.771C142.381 32.547 142.054 31.1245 142.054 29.5026C142.054 27.8807 142.381 26.472 143.035 25.2773C143.718 24.0818 144.6 23.172 145.681 22.5454C146.791 21.9195 147.957 21.607 149.181 21.607C150.432 21.607 151.599 21.9195 152.68 22.5454C153.789 23.1435 154.671 24.0395 155.326 25.2342ZM187.662 28.9475C187.662 29.8297 187.605 30.6264 187.491 31.3377H169.525C169.667 33.2159 170.364 34.7239 171.616 35.8616C172.868 37.0001 174.404 37.569 176.225 37.569C178.842 37.569 180.692 36.4736 181.773 34.2828H187.022C186.31 36.4451 185.016 38.2233 183.138 39.6181C181.289 40.9837 178.985 41.6665 176.225 41.6665C173.977 41.6665 171.958 41.1684 170.165 40.1723C168.401 39.1486 167.007 37.726 165.983 35.9047C164.987 34.055 164.489 31.9212 164.489 29.5026C164.489 27.0839 164.973 24.964 165.94 23.1435C166.936 21.2937 168.316 19.8712 170.08 18.8751C171.872 17.879 173.921 17.381 176.225 17.381C178.444 17.381 180.421 17.8652 182.157 18.8328C183.892 19.7996 185.244 21.166 186.211 22.9295C187.178 24.6653 187.662 26.6713 187.662 28.9475ZM182.584 27.4111C182.555 25.6183 181.915 24.1819 180.663 23.1004C179.411 22.0196 177.861 21.4785 176.012 21.4785C174.333 21.4785 172.896 22.0196 171.701 23.1004C170.507 24.1534 169.795 25.5898 169.568 27.4111H182.584ZM213.829 31.3377C213.943 30.6264 214 29.8297 214 28.9475C214 26.6713 213.516 24.6653 212.549 22.9295C211.582 21.166 210.23 19.7996 208.495 18.8328C206.76 17.8652 204.782 17.381 202.563 17.381C200.259 17.381 198.21 17.879 196.418 18.8751C194.654 19.8712 193.274 21.2937 192.279 23.1435C191.311 24.964 190.828 27.0839 190.828 29.5026C190.828 31.9212 191.326 34.055 192.321 35.9047C193.345 37.726 194.74 39.1486 196.503 40.1723C198.296 41.1684 200.316 41.6665 202.563 41.6665C205.323 41.6665 207.627 40.9837 209.476 39.6181C211.354 38.2233 212.649 36.4451 213.36 34.2828H208.111C207.03 36.4736 205.181 37.569 202.563 37.569C200.742 37.569 199.206 37.0001 197.954 35.8616C196.703 34.7239 196.006 33.2159 195.863 31.3377H213.829ZM207.001 23.1004C208.253 24.1819 208.893 25.6183 208.922 27.4111H195.906C196.134 25.5898 196.845 24.1534 198.04 23.1004C199.235 22.0196 200.671 21.4785 202.35 21.4785C204.199 21.4785 205.75 22.0196 207.001 23.1004Z" fill="white"/>
</svg>
