<svg width="521" height="251" viewBox="0 0 521 251" fill="none" xmlns="http://www.w3.org/2000/svg">
<path fill-rule="evenodd" clip-rule="evenodd" d="M156.523 148.156C155.466 149.393 153.71 151 151.288 151C148.598 151 146.307 149.839 144.439 148.29C142.595 146.761 140.975 144.707 139.52 142.497C137.099 138.819 134.775 134.129 132.494 129.524C132.058 128.644 131.623 127.766 131.189 126.899C128.405 121.334 125.627 116.117 122.535 112.295C119.42 108.442 116.523 106.667 113.599 106.667C110.861 106.667 108.314 108.383 105.432 112.513C103.124 115.819 101.053 120.003 98.7498 124.655C98.1714 125.823 97.5783 127.021 96.9632 128.242C94.0017 134.119 90.5768 140.411 86.0331 145.225C81.3902 150.144 75.4368 153.667 67.5722 153.667C52.9474 153.667 39.9387 144.733 28.2763 136.718L27.786 136.381C21.9716 132.384 16.4345 128.577 10.8639 125.718C5.16201 122.792 -0.316502 121 -5.80381 121C-24.9577 121 -45.7974 130.021 -53.7725 134.544C-55.4539 135.498 -57.59 134.908 -58.5437 133.227C-59.4974 131.546 -58.9076 129.409 -57.2262 128.456C-48.7474 123.646 -26.6732 114 -5.80381 114C1.21615 114 7.828 116.292 14.0602 119.49C20.0393 122.559 25.9062 126.593 31.592 130.503C31.8087 130.652 32.0251 130.8 32.2413 130.949C44.3428 139.267 55.5149 146.667 67.5722 146.667C73.0487 146.667 77.2679 144.314 80.9424 140.421C84.7159 136.422 87.7531 130.964 90.7118 125.092C91.2581 124.007 91.8047 122.902 92.3542 121.791C94.6767 117.094 97.0524 112.289 99.691 108.508C102.958 103.825 107.332 99.6667 113.599 99.6667C119.681 99.6667 124.371 103.433 127.978 107.893C131.61 112.383 134.689 118.25 137.449 123.767C137.916 124.701 138.374 125.623 138.823 126.53C141.113 131.145 143.204 135.363 145.367 138.648C146.649 140.595 147.825 142.004 148.906 142.9C149.722 143.577 150.364 143.865 150.873 143.96C150.956 143.88 151.065 143.767 151.199 143.61C151.827 142.875 152.618 141.623 153.543 139.758C155.376 136.06 157.402 130.635 159.568 123.925C163.887 110.542 168.571 92.6488 173.248 74.6212C173.504 73.6353 173.759 72.649 174.015 71.663C178.417 54.6856 182.791 37.8146 186.78 24.9625C188.885 18.18 190.926 12.3722 192.855 8.21463C193.811 6.15428 194.817 4.3244 195.891 2.95651C196.8 1.79776 198.499 0 200.983 0C202.951 0 204.218 1.26407 204.814 2.00437C205.482 2.8332 206.006 3.85864 206.437 4.87417C207.313 6.94114 208.138 9.79497 208.935 13.1833C210.54 20.0103 212.178 29.6665 213.848 41.12C216.631 60.2056 219.543 84.5794 222.554 109.781C223.161 114.86 223.772 119.972 224.386 125.082C228.057 155.596 231.862 186.009 235.764 208.784C237.718 220.191 239.675 229.549 241.617 236.008C242.596 239.263 243.515 241.588 244.335 243.034C244.426 243.194 244.511 243.336 244.59 243.46C245.238 242.644 246.013 241.249 246.864 239.152C248.563 234.965 250.236 228.812 251.903 221.18C254.784 207.986 257.526 190.958 260.37 173.292C260.807 170.575 261.247 167.843 261.691 165.107C265 144.678 268.495 124.057 272.519 108.528C274.524 100.789 276.715 94.0976 279.177 89.2746C280.405 86.8686 281.796 84.7357 283.414 83.1622C285.049 81.5717 287.158 80.3333 289.701 80.3333C297.052 80.3333 302.019 85.8603 305.534 92.0537C309.124 98.3785 311.934 106.682 314.538 114.57C314.703 115.071 314.867 115.57 315.031 116.067C317.509 123.588 319.833 130.641 322.553 135.958C325.599 141.911 328.294 144 330.725 144C333.956 144 337.367 142.073 341.156 138.144C344.9 134.261 348.475 128.991 352.098 123.424C352.564 122.708 353.032 121.985 353.501 121.26C356.587 116.493 359.73 111.637 362.886 107.852C364.718 105.655 366.68 103.66 368.789 102.196C370.909 100.725 373.358 99.6667 376.085 99.6667C378.901 99.6667 381.327 100.836 383.349 102.451C385.342 104.044 387.109 106.195 388.713 108.526C391.154 112.072 393.551 116.548 395.943 121.017C396.657 122.35 397.37 123.682 398.084 124.988C401.29 130.855 404.591 136.38 408.378 140.433C412.129 144.448 416.022 146.667 420.444 146.667C425.359 146.667 430.166 144.944 435.193 142.075C439.899 139.388 444.543 135.853 449.502 132.077C449.878 131.791 450.256 131.503 450.636 131.214C461.111 123.25 473.116 114.333 487.817 114.333H487.843C497.552 114.333 505.488 114.333 518.151 116.728C520.05 117.087 521.299 118.918 520.94 120.817C520.581 122.716 518.75 123.965 516.85 123.606C504.844 121.335 497.44 121.333 487.817 121.333C475.836 121.333 465.661 128.584 454.873 136.786C454.47 137.093 454.066 137.4 453.661 137.709C448.798 141.414 443.792 145.226 438.663 148.154C433.068 151.348 427.036 153.667 420.444 153.667C413.36 153.667 407.747 150.011 403.264 145.212C398.817 140.453 395.156 134.228 391.941 128.345C391.142 126.883 390.374 125.448 389.627 124.055C387.279 119.671 385.146 115.688 382.947 112.495C381.518 110.419 380.205 108.899 378.98 107.921C377.785 106.966 376.854 106.667 376.085 106.667C375.227 106.667 374.153 106.994 372.78 107.947C371.396 108.907 369.895 110.376 368.262 112.335C365.4 115.767 362.518 120.217 359.4 125.03C358.927 125.76 358.449 126.498 357.965 127.242C354.375 132.759 350.467 138.572 346.195 143.002C341.969 147.385 336.833 151 330.725 151C323.818 151 319.384 145.131 316.322 139.146C313.341 133.322 310.854 125.765 308.441 118.436C308.257 117.877 308.074 117.319 307.89 116.764C305.24 108.735 302.631 101.121 299.446 95.5088C296.186 89.7647 293.024 87.3333 289.701 87.3333C289.577 87.3333 289.124 87.3736 288.294 88.1806C287.447 89.0045 286.468 90.3879 285.411 92.4572C283.304 96.5847 281.266 102.68 279.295 110.284C275.367 125.443 271.92 145.738 268.6 166.226C268.16 168.947 267.721 171.67 267.284 174.385C264.445 192.022 261.668 209.273 258.741 222.674C257.057 230.386 255.283 237.02 253.351 241.783C252.392 244.147 251.31 246.264 250.043 247.849C248.821 249.375 246.936 251 244.342 251C242.673 251 241.362 250.21 240.46 249.392C239.569 248.583 238.846 247.546 238.245 246.486C237.038 244.357 235.941 241.44 234.914 238.024C232.843 231.138 230.829 221.434 228.864 209.966C224.928 186.991 221.104 156.404 217.436 125.918C216.82 120.79 216.207 115.665 215.599 110.578C212.588 85.3749 209.689 61.1162 206.921 42.13C205.256 30.7085 203.652 21.3022 202.12 14.7854C201.521 12.2376 200.955 10.2288 200.433 8.75235C200.06 9.40317 199.649 10.2018 199.205 11.1604C197.48 14.8778 195.55 20.32 193.465 27.0375C189.528 39.7246 185.192 56.4453 180.771 73.4958C180.522 74.456 180.273 75.4172 180.024 76.3788C175.361 94.3512 170.624 112.458 166.229 126.075C164.038 132.865 161.885 138.69 159.815 142.867C158.788 144.939 157.696 146.781 156.523 148.156ZM201.871 6.76912C201.871 6.77046 201.858 6.78122 201.832 6.79747C201.858 6.77591 201.871 6.76779 201.871 6.76912ZM199.338 6.36798C199.338 6.36723 199.346 6.37567 199.362 6.39553C199.346 6.37865 199.338 6.36873 199.338 6.36798ZM243.983 244.068C243.983 244.068 243.989 244.063 244.003 244.057C243.991 244.065 243.984 244.068 243.983 244.068ZM150.665 144.133C150.665 144.133 150.671 144.128 150.682 144.122C150.67 144.13 150.665 144.133 150.665 144.133Z" fill="url(#paint0_linear_3_219)" fill-opacity="0.2"/>
<defs>
<linearGradient id="paint0_linear_3_219" x1="-50.7972" y1="242.976" x2="512.798" y2="242.976" gradientUnits="userSpaceOnUse">
<stop offset="0.0395832" stop-color="#8C40E3" stop-opacity="0"/>
<stop offset="0.315625" stop-color="#8C34DD"/>
<stop offset="0.492708" stop-color="#A52ABD"/>
<stop offset="0.732292" stop-color="#D52689"/>
<stop offset="0.951042" stop-color="#ED6697" stop-opacity="0"/>
</linearGradient>
</defs>
</svg>
