<svg width="59" height="58" viewBox="0 0 59 58" fill="none" xmlns="http://www.w3.org/2000/svg">
<rect width="59" height="58" fill="#E5E5E5"/>
<g clip-path="url(#clip0_0_1)">
<rect width="1500" height="5629" transform="translate(-585 -2419)" fill="white"/>
<rect x="-45" y="-51" width="420" height="210" rx="10" fill="#FBFBFD"/>
<rect x="-20" y="-21" width="100" height="100" rx="50" fill="white"/>
<path d="M59 27.3661C59 27.5998 59 27.8076 58.9736 28.0414C58.9736 28.1979 58.9469 28.3551 58.9326 28.5109C58.9265 28.5774 58.9208 28.6442 58.9208 28.7166C58.9208 28.7945 58.8944 28.8984 58.8944 28.9763C58.8944 29.0592 58.8837 29.1421 58.869 29.225C58.8524 29.319 58.8421 29.4143 58.8284 29.5088C58.8147 29.6033 58.8046 29.6987 58.7934 29.7935C58.7849 29.8656 58.7786 29.9355 58.7624 30.0152C58.736 30.1191 58.736 30.197 58.7096 30.3009C58.6832 30.4048 58.6568 30.5347 58.6304 30.6386C58.5828 30.8262 58.5535 31.0191 58.5058 31.2067C58.5034 31.2165 58.5009 31.2262 58.4984 31.2359C58.472 31.3398 58.4456 31.4177 58.4192 31.5216C58.3928 31.6255 58.3664 31.7294 58.34 31.8333C58.3136 31.9371 58.2873 32.0151 58.2609 32.119C58.2345 32.2228 58.1817 32.3267 58.1553 32.4046C58.1289 32.5085 58.0761 32.5865 58.0497 32.6903C58.0233 32.7942 57.9705 32.8721 57.9441 32.976C57.9177 33.0799 57.8649 33.1578 57.8385 33.2617C57.8121 33.3396 57.7593 33.4435 57.7065 33.5214C57.6537 33.6253 57.6273 33.7032 57.5745 33.8071C57.5217 33.885 57.4953 33.963 57.4425 34.0409C57.3897 34.1448 57.3369 34.2227 57.2841 34.3266C57.1924 34.4619 57.1112 34.6069 57.0314 34.7496C57.0189 34.7721 57.0063 34.7953 56.9937 34.82C56.9673 34.872 56.9145 34.9499 56.8881 35.0018C56.8353 35.1057 56.7562 35.2096 56.677 35.3135C56.4683 35.5957 56.2597 35.878 56.0256 36.1602C56.0201 36.1669 56.017 36.1753 56.017 36.184C56.017 36.1921 56.0143 36.2001 56.0093 36.2065C55.9311 36.3071 55.8288 36.4076 55.7266 36.5082C55.6566 36.5771 55.5907 36.6537 55.5212 36.7231C55.486 36.7583 55.4498 36.7927 55.4158 36.829C55.3746 36.873 55.3355 36.919 55.2926 36.9612C55.2723 36.9812 55.2521 37.001 55.2251 37.0277C55.1641 37.0876 55.0875 37.163 55.0073 37.23C54.96 37.2696 54.9126 37.3091 54.8687 37.3523C54.8247 37.3955 54.7774 37.4352 54.7296 37.4741C54.6807 37.5138 54.6354 37.5535 54.5866 37.5932C54.538 37.6327 54.4757 37.6686 54.4285 37.7097C54.3911 37.7423 54.3602 37.7696 54.3204 37.7992C54.272 37.8353 54.2246 37.8713 54.1809 37.9074C54.1186 37.9589 54.0537 38.01 53.988 38.0572C53.9515 38.0834 53.9134 38.106 53.877 38.1326C53.7896 38.1965 53.7022 38.2573 53.6148 38.3003C53.6079 38.3036 53.6011 38.307 53.5942 38.3104C53.4945 38.3603 53.4116 38.438 53.3167 38.4965C53.2819 38.518 53.2471 38.5391 53.2122 38.5618C53.163 38.5939 53.1131 38.625 53.0604 38.6509C53.0077 38.6768 52.958 38.7084 52.9075 38.7383C52.8182 38.7909 52.7202 38.8313 52.638 38.8717C52.547 38.9165 52.4567 38.9676 52.3672 39.0155C52.292 39.0558 52.2194 39.0987 52.1365 39.1314C52.0837 39.1574 52.0573 39.1574 52.0045 39.1833C51.8843 39.2306 51.7641 39.2779 51.6439 39.3448C51.6202 39.358 51.5995 39.3754 51.5741 39.3848C51.526 39.4027 51.4775 39.4253 51.429 39.4419C51.3018 39.4856 51.1873 39.5292 51.0541 39.5729L51.0013 39.5989C49.7078 40.0404 48.3087 40.2741 46.804 40.2741C42.5539 40.2741 38.2774 38.1445 32.1002 32.5605C31.9154 32.3787 31.889 32.093 32.0738 31.9112L33.9745 30.0412C34.1593 29.8594 34.4233 29.8594 34.6081 30.0412C39.5445 34.4824 43.3459 36.5602 46.6984 36.5602C47.1736 36.5602 47.6488 36.5342 48.0975 36.4563C48.5949 36.379 49.0923 36.2506 49.564 36.0965C49.5719 36.094 49.5801 36.0927 49.5883 36.0927C49.5975 36.0927 49.6067 36.091 49.6153 36.0879C49.8232 36.0115 50.0554 35.9347 50.2622 35.8329L50.315 35.807C50.5262 35.7031 50.7374 35.5992 50.9222 35.4953L50.9749 35.4693C51.1861 35.3654 51.3709 35.2356 51.5557 35.1057C51.9517 34.82 52.2949 34.5343 52.6116 34.1707L52.638 34.1448C52.7964 33.9889 52.9284 33.8071 53.0868 33.6253L53.1396 33.5474C53.2716 33.3656 53.4036 33.1838 53.5356 33.002L53.5884 32.9241C53.7204 32.7423 53.826 32.5345 53.9315 32.3267L53.9579 32.2748C54.1691 31.8592 54.3803 31.3917 54.5123 30.9242L54.5387 30.8463C54.612 30.6301 54.6627 30.4138 54.7116 30.1975C54.7195 30.1627 54.7252 30.127 54.7367 30.0931C54.7482 30.0593 54.7539 30.0236 54.7617 29.9887C54.8104 29.7723 54.8575 29.5543 54.8819 29.314C54.8819 29.2252 54.9128 29.1388 54.9221 29.0505C54.9439 28.8422 54.9657 28.6454 54.9875 28.4309C54.9875 28.405 54.9875 28.379 54.9875 28.327C55.0139 28.0673 55.0139 27.7816 55.0139 27.4959C55.0139 22.7691 52.3741 19.2369 48.5991 18.4317C48.0711 18.3279 47.4904 18.2499 46.9096 18.2499C44.4282 18.2499 41.9204 19.1849 38.4622 21.8081C36.6407 23.1846 34.5289 25.0546 31.9946 27.5479L31.9682 27.5739L31.9418 27.5998C31.6779 27.8855 29.7244 29.8854 29.4604 30.1451C23.0984 36.4043 18.6635 39.3132 14.5454 40.0923C13.7799 40.2222 13.0143 40.3001 12.2752 40.3001C11.6152 40.3001 10.9553 40.2482 10.3217 40.1703C4.19731 39.2872 0 34.3006 0 27.4959C0 19.9121 5.12125 14.51 12.1696 14.51C13.3047 14.51 14.4398 14.6658 15.5749 15.0034C16.1293 15.1593 16.6837 14.8476 16.8421 14.3022C17.5812 11.8349 19.0595 9.78308 21.0922 8.30268C21.1714 8.25073 21.1978 8.14684 21.1714 8.06893L20.4058 6.09506C20.3491 5.98353 20.2128 5.94941 20.095 5.90723C19.0185 5.52173 18.1815 4.54861 18.0564 3.34203C17.898 1.67983 19.1387 0.173456 20.8282 0.0176243C22.5177 -0.138207 24.0488 1.08247 24.2072 2.74468C24.2864 3.44592 24.1016 4.12119 23.732 4.66661C23.7056 4.71855 23.6792 4.79646 23.7056 4.84841L24.2864 6.40673C24.3392 6.51061 24.4447 6.56256 24.5503 6.53659C26.0022 6.06909 27.5861 5.80937 29.302 5.80937C31.0707 5.80937 32.7338 6.06909 34.2385 6.56256C34.3441 6.58853 34.4761 6.53659 34.5025 6.4327L35.1096 4.84841C35.1687 4.7322 35.0464 4.61186 34.9841 4.49734C34.7051 3.98442 34.5606 3.37504 34.6081 2.74468C34.7664 1.08247 36.2975 -0.164179 37.987 0.0176243C39.6765 0.173456 40.9436 1.67983 40.7588 3.34203C40.6337 4.54865 39.8204 5.5218 38.7238 5.90728C38.6037 5.9495 38.4503 5.97448 38.4094 6.09506L37.6438 8.12088C37.6175 8.19879 37.6438 8.30268 37.723 8.35462C38.9374 9.2117 39.9405 10.2765 40.706 11.4972C41.0228 12.0167 40.838 12.7179 40.2837 12.9517C39.7821 13.1854 39.2541 13.4451 38.7262 13.7568C38.2774 14.0165 37.6438 13.8866 37.3535 13.4451C35.7696 11.1856 32.8658 9.73114 29.2756 9.73114C24.1016 9.73114 20.5114 12.7439 20.1154 17.1331C20.0626 19.133 20.6962 21.0549 21.013 21.912C21.0658 22.0678 21.0394 22.2756 20.8018 22.0938C19.9834 21.5224 18.1356 20.2498 16.8157 19.4446L16.7365 19.3927C16.6045 19.3148 16.4725 19.2628 16.3405 19.2109C14.783 18.5097 13.4103 18.224 12.0112 18.224H11.9848C9.37579 18.224 7.16144 19.4405 5.73567 21.4602C5.73095 21.4668 5.72841 21.4748 5.72841 21.483C5.72841 21.4917 5.72555 21.5002 5.72028 21.5071C5.64905 21.6006 5.57854 21.6948 5.528 21.8087C5.52063 21.8253 5.51054 21.8406 5.49759 21.8534C5.49309 21.8578 5.48889 21.8626 5.4851 21.8676C5.4118 21.9653 5.36072 22.0636 5.28793 22.184C5.28245 22.1931 5.27582 22.2014 5.26826 22.2089C5.25831 22.2187 5.25005 22.23 5.2436 22.2424C5.19116 22.3428 5.11813 22.4635 5.06846 22.5613L5.04206 22.6132C4.98926 22.7171 4.93647 22.847 4.88367 22.9509L4.85727 23.0028C4.81055 23.0947 4.76384 23.207 4.71712 23.3036C4.7052 23.3282 4.69447 23.3535 4.68568 23.3794C4.67689 23.4053 4.66594 23.4305 4.65504 23.4556C4.62047 23.5353 4.59669 23.6256 4.56318 23.7064C4.54943 23.7395 4.53622 23.7746 4.52128 23.8072C4.5134 23.8244 4.51184 23.8432 4.50669 23.8614C4.48479 23.9388 4.45167 24.0272 4.42677 24.1075C4.41368 24.1498 4.40949 24.1946 4.3953 24.2365C4.38111 24.2784 4.37659 24.3231 4.3657 24.3659C4.35024 24.4268 4.33477 24.4877 4.31931 24.5485C4.30842 24.5914 4.3039 24.6361 4.28971 24.678C4.27552 24.7199 4.27095 24.7646 4.26016 24.8075C4.24326 24.8747 4.22636 24.9441 4.20947 25.0225C4.20116 25.0611 4.19684 25.1098 4.18625 25.1477C4.17311 25.1949 4.16452 25.2343 4.15307 25.2819C4.1338 25.362 4.11812 25.442 4.11812 25.5221C4.11812 25.6271 4.07856 25.7295 4.06532 25.8337C4.06136 25.865 4.05739 25.8962 4.05199 25.9274C4.0448 25.969 4.03992 26.0079 4.03786 26.0501C4.03396 26.13 4.01347 26.2133 4.00345 26.2927C3.99581 26.3532 3.98613 26.4099 3.98613 26.4571C3.98613 26.4758 3.98613 26.4946 3.98576 26.513C3.98372 26.6151 3.96465 26.7183 3.95424 26.8199C3.94703 26.8903 3.93333 26.9607 3.93333 27.0314C3.93333 27.1505 3.93333 27.266 3.93333 27.3661V27.418C3.93333 32.8202 7.3651 36.4822 12.3016 36.4822C16.2085 36.4822 20.749 33.7292 26.979 27.5219C27.3485 27.1323 29.038 25.3922 29.4076 25.0546C36.8519 17.4708 41.762 14.458 46.7776 14.458C53.9843 14.3801 59 19.7823 59 27.3661ZM43.9887 43.3524C44.1464 43.5654 44.1419 43.9062 43.953 44.092L30.0148 57.8052C29.7508 58.0649 29.3284 58.0649 29.0644 57.8052L15.2694 44.207C15.2619 44.1996 15.2545 44.1921 15.246 44.1859C15.2358 44.1786 15.2206 44.1699 15.2054 44.1699C15.1885 44.1699 15.1725 44.1628 15.1582 44.1536C15.1528 44.1501 15.1477 44.1472 15.1432 44.1443C15.1252 44.1326 15.1194 44.1087 15.1089 44.0899C15.0676 44.016 15.047 43.9241 15.047 43.8323V43.8063C15.047 43.7804 15.047 43.7544 15.047 43.7284C15.047 43.7284 15.049 43.6939 15.0539 43.6774C15.0822 43.582 15.1347 43.4884 15.2318 43.4168C15.6013 43.1311 16.1029 42.7675 16.6837 42.4038C17.502 41.8584 18.5315 41.2611 19.7459 40.6897C22.1745 39.5729 25.3687 38.56 29.17 38.4821C29.3284 38.4821 29.4868 38.4821 29.6716 38.4821C32.6018 38.4821 35.1888 39.0275 37.3271 39.7807C39.4917 40.5339 41.234 41.4689 42.4747 42.274C43.0555 42.6376 43.5307 42.9752 43.9002 43.2609C43.9333 43.2869 43.963 43.3179 43.9887 43.3524ZM22.9136 43.157C22.0689 43.4687 21.3034 43.8063 20.617 44.144C20.485 44.1959 20.4586 44.3777 20.5642 44.4816L23.0984 46.9749C23.1776 47.0528 23.2832 47.0528 23.3624 47.0009C23.6792 46.7931 24.0488 46.5853 24.5239 46.3516C25.7119 45.7802 27.4013 45.2348 29.4868 45.2348C29.6716 45.2348 29.8564 45.2348 30.0148 45.2348C31.6779 45.3127 33.0506 45.7023 34.0801 46.1698C34.74 46.4555 35.2416 46.7671 35.6376 47.0269C35.7168 47.0788 35.8224 47.0788 35.9016 47.0009L38.5678 44.3777C38.6734 44.2738 38.647 44.118 38.515 44.0401C38.3038 43.9362 38.0662 43.8323 37.8286 43.7284C35.6904 42.7675 32.9186 41.9363 29.6188 41.9363C29.4868 41.9363 29.3548 41.9363 29.1964 41.9363C26.8206 42.0143 24.7087 42.5077 22.9136 43.157ZM30.0148 52.8446L33.0242 49.8838C33.1222 49.7874 33.1065 49.6462 32.9982 49.5641C32.9814 49.5513 32.9588 49.5467 32.9437 49.5319C32.9303 49.5188 32.9101 49.5158 32.8934 49.5074C32.1816 49.1487 31.1608 48.8183 29.8564 48.767C29.7244 48.767 29.5924 48.767 29.4868 48.767C28.0349 48.767 26.8998 49.1306 26.0814 49.5202C25.9494 49.5721 25.923 49.7539 26.0286 49.8578L29.0908 52.8705C29.3284 53.1043 29.7508 53.1043 30.0148 52.8446Z" fill="url(#paint0_linear_0_1)"/>
</g>
<defs>
<linearGradient id="paint0_linear_0_1" x1="-0.907692" y1="58" x2="59" y2="58" gradientUnits="userSpaceOnUse">
<stop stop-color="#FB9F30"/>
<stop offset="0.492708" stop-color="#DE2E70"/>
<stop offset="1" stop-color="#634AD6"/>
</linearGradient>
<clipPath id="clip0_0_1">
<rect width="1500" height="5629" fill="white" transform="translate(-585 -2419)"/>
</clipPath>
</defs>
</svg>
